:SAMPLES-PER-SECOND 30
:FULLY-SPECIFIED
:DEGREES
315
root  -50.9523 39.5036 15.7852 174.406 40.8677 176.204
RightUpLeg  -10.2639 -17.5988 -7.4162
RightLeg  25.0767 -1.07871 -0.774363
RightFoot  -9.77487 -0.0662325 0.0231319
RightToes  2.32829e-010 0 -3.6325e-017
Spine  17.4632 -1.43454 2.90779
Spine1  9.63213 -1.09564 0.274022
HEad  -20.1213 -10.4884 1.97182
LeftShoulder1  0.496262 2.05499 -28.13
LeftArm  -8.68652 13.2137 -32.0565
LeftForeArm  52.3923 -78.309 -66.4664
LeftHand  0.0202603 0.176634 -0.478444
RightShoulder  -0.337509 -4.4907 27.0844
RightArm  -9.86248 -13.149 38.8099
RightForeArm  90.6511 77.8488 113.961
RightHand  -0.156452 2.9919 -2.38211
LeftUpLeg  2.93866 2.90612 12.5501
LeftLeg  16.6033 6.20377 2.94335
LeftFoot  -11.8132 0.066076 0.667367
LeftToes  -3.54706e-010 1.16038e-010 5.28031e-012
316
root  -49.9359 39.5162 15.5843 173.955 44.1692 176.079
RightUpLeg  -9.11829 -15.1416 -6.33859
RightLeg  25.2796 -0.422357 -0.446518
RightFoot  -11.2157 -0.0750662 -0.366532
RightToes  2.32829e-010 0 -3.6325e-017
Spine  16.5665 -1.76488 4.41072
Spine1  10.6346 -1.05709 0.0602766
HEad  -19.0276 -8.45521 0.469937
LeftShoulder1  0.427932 2.26672 -28.4622
LeftArm  -7.94956 11.6238 -31.965
LeftForeArm  47.3799 -77.8292 -61.7153
LeftHand  0.0101633 0.181961 -0.250951
RightShoulder  -0.333219 -4.49596 26.4631
RightArm  -9.80775 -13.4111 39.1479
RightForeArm  90.5863 77.7614 114.567
RightHand  -0.211117 3.24659 -3.08535
LeftUpLeg  -0.0569537 2.40814 10.2543
LeftLeg  22.5149 0.656094 0.593613
LeftFoot  -12.8471 0.0562329 -1.70109
LeftToes  -3.54706e-010 1.16038e-010 5.28031e-012
317
root  -48.8475 39.6188 15.3883 173.473 47.9723 175.267
RightUpLeg  -7.85378 -12.7088 -5.59068
RightLeg  24.2888 0.512715 0.0234175
RightFoot  -12.2881 -0.088684 -0.638327
RightToes  2.32829e-010 0 -3.6325e-017
Spine  15.4324 -1.53344 4.83593
Spine1  10.9828 -0.65798 -0.0562582
HEad  -17.2826 -6.06077 -1.92334
LeftShoulder1  0.463431 2.1569 -28.2927
LeftArm  -7.60148 11.0295 -32.2075
LeftForeArm  43.8422 -77.4154 -58.4077
LeftHand  0.00525919 0.0202888 -0.116188
RightShoulder  -0.231755 -4.18836 26.327
RightArm  -9.90778 -14.3034 38.8938
RightForeArm  91.8468 77.6544 115.718
RightHand  -0.209211 2.75741 -3.19307
LeftUpLeg  -3.61668 3.72915 7.19836
LeftLeg  27.4571 -1.21739 -0.31522
LeftFoot  -12.87 0.0442316 -2.45726
LeftToes  -3.54706e-010 1.16038e-010 5.28031e-012
318
root  -47.6828 39.8105 15.1589 172.349 51.5213 173.88
RightUpLeg  -5.59451 -10.7684 -5.37217
RightLeg  22.2117 1.77865 0.572087
RightFoot  -12.8793 -0.102789 -1.18865
RightToes  2.32829e-010 0 -3.6325e-017
Spine  14.8207 -1.25617 4.70619
Spine1  10.7578 -0.293938 -0.435082
HEad  -16.3816 -3.76183 -5.47564
LeftShoulder1  0.392778 2.38023 -28.8227
LeftArm  -6.95422 10.4113 -31.7336
LeftForeArm  41.4885 -77.1245 -56.4429
LeftHand  -0.0120732 0.15233 0.256724
RightShoulder  -0.20992 -4.12914 25.9381
RightArm  -9.78377 -14.833 39.2119
RightForeArm  89.9231 77.6484 115.16
RightHand  -0.262299 3.67373 -3.64556
LeftUpLeg  -6.86414 5.06399 3.74691
LeftLeg  29.9305 0.120044 0.415506
LeftFoot  -12.0308 0.0595767 -2.10379
LeftToes  -3.54706e-010 1.16038e-010 5.28031e-012
319
root  -46.4418 39.9959 14.9268 171.112 55.4653 172.124
RightUpLeg  -3.28332 -8.44798 -5.11395
RightLeg  19.5716 3.15652 0.902896
RightFoot  -13.1731 -0.113241 -1.50549
RightToes  2.32829e-010 0 -3.6325e-017
Spine  13.7209 -0.723244 4.4396
Spine1  10.7038 0.40191 -1.41923
HEad  -15.8171 -0.611435 -8.64864
LeftShoulder1  0.39333 2.37169 -28.6154
LeftArm  -7.01916 10.7571 -31.5359
LeftForeArm  41.6662 -77.1626 -56.7642
LeftHand  0.00659095 0.319844 -0.226618
RightShoulder  -0.234576 -4.20229 26.0844
RightArm  -9.33368 -15.3047 39.4482
RightForeArm  92.416 77.4619 117.161
RightHand  -0.237731 2.18064 -3.79207
LeftUpLeg  -9.96567 7.5075 0.609447
LeftLeg  29.5314 1.85895 1.47554
LeftFoot  -11.3321 0.0682367 -2.1413
LeftToes  -3.54706e-010 1.16038e-010 5.28031e-012
320
root  -45.2246 40.1122 14.6831 169.532 58.6361 170.547
RightUpLeg  -0.592799 -7.55343 -4.9735
RightLeg  17.4837 5.30044 1.08811
RightFoot  -13.5111 -0.13303 -2.20136
RightToes  2.32829e-010 0 -3.6325e-017
Spine  13.308 -0.50314 4.36999
Spine1  10.5844 0.750322 -2.15404
HEad  -15.9442 2.74662 -11.7668
LeftShoulder1  0.374724 2.42675 -28.6728
LeftArm  -7.45726 10.8552 -31.1669
LeftForeArm  42.6619 -77.2568 -57.2452
LeftHand  0.0513662 0.812819 -1.4107
RightShoulder  -0.194437 -4.0829 25.8433
RightArm  -9.11878 -16.1185 39.674
RightForeArm  95.6926 77.1723 119.877
RightHand  -0.13025 1.99318 -2.23995
LeftUpLeg  -12.4421 8.78652 -2.18495
LeftLeg  26.6672 3.82037 2.40601
LeftFoot  -10.9256 0.074289 -2.43187
LeftToes  -3.54706e-010 1.16038e-010 5.28031e-012
321
root  -44.0025 40.1631 14.4121 168.014 61.6328 169.298
RightUpLeg  2.37262 -6.9728 -4.66081
RightLeg  15.4529 7.52682 0.95449
RightFoot  -13.9504 -0.161244 -2.93662
RightToes  2.32829e-010 0 -3.6325e-017
Spine  13.1471 -0.444942 5.02248
Spine1  10.4205 1.25362 -3.8505
HEad  -15.8179 7.50626 -12.0678
LeftShoulder1  0.401351 2.33326 -28.1412
LeftArm  -8.01713 11.1862 -31.209
LeftForeArm  43.1666 -77.34 -57.9098
LeftHand  0.0410121 1.03408 -1.27374
RightShoulder  -0.189401 -4.05947 26.2715
RightArm  -8.76937 -16.2591 39.5864
RightForeArm  97.7089 76.9685 121.557
RightHand  -0.126623 2.25678 -2.08567
LeftUpLeg  -14.3032 9.19678 -4.38318
LeftLeg  21.9962 5.98256 3.02263
LeftFoot  -10.4691 0.0846496 -2.83253
LeftToes  -3.54706e-010 1.16038e-010 5.28031e-012
322
root  -42.7059 40.1098 14.0979 166.839 64.2223 168.484
RightUpLeg  5.4265 -7.01311 -4.35142
RightLeg  13.8473 9.80033 0.715941
RightFoot  -14.667 -0.20204 -3.54573
RightToes  2.32829e-010 0 -3.6325e-017
Spine  12.4425 -0.374171 5.08366
Spine1  10.9148 1.38136 -4.24579
HEad  -15.5847 13.8851 -8.17516
LeftShoulder1  0.3461 2.49869 -28.3093
LeftArm  -8.91654 11.1444 -30.9771
LeftForeArm  43.1321 -77.3169 -57.6585
LeftHand  0.0732051 1.03222 -2.13348
RightShoulder  -0.162595 -3.97809 26.1965
RightArm  -8.33936 -16.301 39.9934
RightForeArm  99.9835 76.7537 123.277
RightHand  -0.101481 0.666077 -2.03421
LeftUpLeg  -15.6103 8.489 -5.66847
LeftLeg  16.2066 7.36679 2.46618
LeftFoot  -9.73579 0.103728 -3.30046
LeftToes  -3.54706e-010 1.16038e-010 5.28031e-012
323
root  -41.346 39.9948 13.7699 165.982 67.3954 167.639
RightUpLeg  8.11754 -7.18163 -4.15216
RightLeg  12.3742 12.6576 0.634435
RightFoot  -15.4297 -0.258282 -4.30354
RightToes  2.32829e-010 0 -3.6325e-017
Spine  11.289 -0.0074192 5.43628
Spine1  11.5279 1.94101 -4.96565
HEad  -15.8824 14.8766 -12.5135
LeftShoulder1  0.262285 2.75144 -28.7148
LeftArm  -9.60059 10.9357 -30.3713
LeftForeArm  43.0615 -77.3209 -57.7521
LeftHand  0.0494004 1.04681 -1.49237
RightShoulder  -0.146542 -3.93185 25.968
RightArm  -7.64542 -15.9439 41.0224
RightForeArm  98.0236 76.6967 123.078
RightHand  -0.228001 0.317793 -4.67775
LeftUpLeg  -16.7729 5.59769 -5.21441
LeftLeg  9.84178 9.50422 0.5022
LeftFoot  -8.68264 0.13724 -3.60215
LeftToes  -3.54706e-010 1.16038e-010 5.28031e-012
324
root  -39.9089 39.778 13.4222 164.74 69.4537 166.964
RightUpLeg  11.5137 -7.81094 -4.45812
RightLeg  11.3858 14.9053 0.617128
RightFoot  -16.589 -0.337786 -4.92516
RightToes  2.32829e-010 0 -3.6325e-017
Spine  10.6499 0.0593799 5.06878
Spine1  12.0494 1.91458 -4.79562
HEad  -16.6929 6.95279 -30.0751
LeftShoulder1  0.262197 2.75677 -28.9677
LeftArm  -10.5813 11.4004 -29.9073
LeftForeArm  43.7653 -77.4549 -58.9498
LeftHand  0.0341058 1.49183 -1.30142
RightShoulder  -0.156566 -3.96291 25.9567
RightArm  -7.04346 -15.5087 41.7512
RightForeArm  97.9076 76.7772 122.632
RightHand  -0.274519 0.374963 -5.58121
LeftUpLeg  -17.1686 0.813424 -4.2737
LeftLeg  3.76502 11.6796 -0.936578
LeftFoot  -7.85105 0.199744 -5.04013
LeftToes  -3.54706e-010 1.16038e-010 5.28031e-012
325
root  -38.4474 39.4995 13.0847 164.299 71.5956 167.128
RightUpLeg  14.6548 -7.6563 -4.23537
RightLeg  10.8655 16.0248 0.38049
RightFoot  -17.7059 -0.409412 -5.20668
RightToes  2.32829e-010 0 -3.6325e-017
Spine  10.6955 0.164348 5.41091
Spine1  11.7646 2.1896 -5.32071
HEad  -20.6453 35.2665 3.20897
LeftShoulder1  0.24877 2.79075 -28.75
LeftArm  -10.9453 11.8947 -29.7037
LeftForeArm  43.6074 -77.4834 -59.4304
LeftHand  -0.00729133 1.28164 0.0229847
RightShoulder  -0.188904 -4.05851 26.2534
RightArm  -6.2417 -15.4799 41.8068
RightForeArm  97.3485 76.8952 121.863
RightHand  -0.186988 0.459065 -3.78361
LeftUpLeg  -17.93 -0.28588 -3.79969
LeftLeg  -0.0675656 10.7015 -1.00786
LeftFoot  -7.32698 0.227926 -5.25163
LeftToes  -3.54706e-010 1.16038e-010 5.28031e-012
